<?xml version="1.0" standalone="no"?>
<!DOCTYPE svg PUBLIC "-//W3C//DTD SVG 20010904//EN"
 "http://www.w3.org/TR/2001/REC-SVG-20010904/DTD/svg10.dtd">
<svg version="1.0" xmlns="http://www.w3.org/2000/svg"
 width="794.000000pt" height="1123.000000pt" viewBox="0 0 794.000000 1123.000000"
 preserveAspectRatio="xMidYMid meet">

<g transform="translate(0.000000,1123.000000) scale(0.100000,-0.100000)"
fill="#000000" stroke="none">
<path d="M2013 6689 c-150 -17 -345 -79 -505 -160 -226 -114 -448 -303 -611
-521 -71 -96 -86 -131 -26 -63 87 99 209 211 304 280 100 72 289 170 405 208
371 125 727 66 934 -154 75 -79 146 -214 166 -316 12 -61 9 -290 -6 -361 l-6
-33 143 3 144 3 18 70 c27 103 33 298 13 410 -52 299 -245 514 -538 599 -144
41 -283 53 -435 35z"/>
<path d="M3300 5683 c0 -365 17 -452 100 -512 55 -40 126 -55 250 -55 118 1
178 14 232 51 78 53 98 155 98 521 l0 222 -110 0 -110 0 0 -274 c0 -278 -4
-317 -38 -342 -20 -16 -135 -18 -162 -4 -35 19 -40 64 -40 346 l0 274 -110 0
-110 0 0 -227z"/>
<path d="M4256 5899 c-104 -15 -150 -57 -165 -150 -7 -40 -6 -75 3 -118 20
-96 57 -127 250 -205 117 -47 136 -60 136 -94 0 -49 -10 -52 -202 -52 l-178 0
0 -32 c0 -18 -3 -57 -7 -87 l-6 -54 219 6 c120 4 236 11 257 17 51 15 104 64
117 108 13 48 13 137 0 184 -22 79 -72 114 -263 189 -55 21 -104 45 -109 51
-15 24 -9 67 11 78 11 6 89 10 180 10 l161 0 0 34 c0 18 3 54 6 80 l7 46 -179
-1 c-99 -1 -205 -5 -238 -10z"/>
<path d="M4802 5603 c3 -302 3 -309 27 -357 47 -94 134 -130 316 -130 179 1
265 45 301 156 14 44 18 105 22 346 l4 292 -111 0 -111 0 0 -274 c0 -282 -5
-327 -40 -346 -10 -6 -47 -10 -83 -10 -55 0 -67 3 -88 26 l-24 26 -3 289 -3
289 -105 0 -105 0 3 -307z"/>
<path d="M5794 5903 c-12 -2 -29 -12 -38 -22 -8 -9 -63 -179 -121 -377 -58
-197 -108 -367 -111 -376 -5 -16 4 -18 103 -18 l109 0 23 95 23 96 126 -3 126
-3 22 -88 c12 -49 24 -91 27 -93 2 -3 51 -3 109 -2 l104 3 -107 366 c-58 201
-112 375 -118 388 -7 12 -23 26 -37 31 -25 10 -197 12 -240 3z m165 -294 c18
-77 31 -142 29 -144 -8 -8 -163 -7 -162 1 1 5 16 71 34 147 26 111 35 137 49
137 14 0 24 -26 50 -141z"/>
<path d="M6362 5568 c3 -336 3 -344 26 -379 40 -66 70 -73 305 -77 l207 -4 0
85 0 86 -150 3 c-121 2 -153 6 -160 18 -6 9 -10 143 -10 313 l0 297 -111 0
-110 0 3 -342z"/>
<path d="M2436 5105 c-21 -30 -50 -64 -63 -76 -12 -13 -23 -26 -23 -31 0 -5
59 -7 132 -6 l132 3 63 75 c35 41 63 78 63 83 0 4 -60 7 -132 7 l-133 0 -39
-55z"/>
<path d="M1925 4670 l-90 -50 144 0 143 0 74 42 c41 23 74 46 74 50 0 4 -57 8
-127 8 l-128 -1 -90 -49z"/>
<path d="M2315 4614 c-174 -120 -419 -218 -620 -250 -125 -19 -284 -15 -375
11 -30 8 -56 15 -57 15 -2 0 -3 -117 -3 -260 l0 -259 34 -6 c76 -15 239 26
370 92 215 108 484 346 664 588 110 148 109 153 -13 69z"/>
</g>
</svg>